<svg width="56" height="47" viewBox="0 0 56 47" fill="none" xmlns="http://www.w3.org/2000/svg">
<path d="M15.8235 28.1501C15.8235 28.8825 15.5647 29.5984 15.0799 30.2073C14.595 30.8163 13.9059 31.2909 13.0997 31.5711C12.2934 31.8513 11.4063 31.9245 10.5504 31.7815C9.69458 31.6385 8.90848 31.2857 8.29156 30.7678C7.67463 30.2498 7.25459 29.5899 7.08456 28.8715C6.91453 28.1532 7.00215 27.4086 7.33633 26.7321C7.67051 26.0555 8.23625 25.4773 8.96199 25.0706C9.68773 24.664 10.5409 24.4471 11.4135 24.4473H15.8235V28.1501Z" fill="#011A4A"/>
<path d="M18.0477 28.1501C18.0477 27.168 18.5125 26.2262 19.3399 25.5318C20.1673 24.8374 21.2894 24.4473 22.4595 24.4473C23.6295 24.4473 24.7517 24.8374 25.5791 25.5318C26.4064 26.2262 26.8712 27.168 26.8712 28.1501V37.4223C26.8712 38.4043 26.4064 39.3461 25.5791 40.0405C24.7517 40.7349 23.6295 41.125 22.4595 41.125C21.2894 41.125 20.1673 40.7349 19.3399 40.0405C18.5125 39.3461 18.0477 38.4043 18.0477 37.4223V28.1501Z" fill="#011A4A"/>
<path d="M22.4595 13.2804C21.5868 13.2804 20.7338 13.0632 20.0083 12.6563C19.2827 12.2494 18.7173 11.671 18.3834 10.9944C18.0495 10.3177 17.9623 9.57311 18.1326 8.85482C18.303 8.13652 18.7234 7.47676 19.3405 6.95898C19.9577 6.44121 20.744 6.08867 21.5999 5.94597C22.4558 5.80327 23.3429 5.8768 24.149 6.15728C24.9551 6.43775 25.644 6.91257 26.1286 7.52167C26.6131 8.13077 26.8716 8.8468 26.8712 9.57919V13.2804H22.4595Z" fill="#011A4A"/>
<path d="M22.4595 15.1472C23.6295 15.1472 24.7517 15.5373 25.5791 16.2317C26.4064 16.9261 26.8712 17.8679 26.8712 18.8499C26.8712 19.832 26.4064 20.7738 25.5791 21.4682C24.7517 22.1625 23.6295 22.5527 22.4595 22.5527H11.41C10.2399 22.5527 9.11777 22.1625 8.2904 21.4682C7.46304 20.7738 6.99823 19.832 6.99823 18.8499C6.99823 17.8679 7.46304 16.9261 8.2904 16.2317C9.11777 15.5373 10.2399 15.1472 11.41 15.1472H22.4595Z" fill="#011A4A"/>
<path d="M40.1765 18.8499C40.1765 18.1175 40.4353 17.4016 40.9201 16.7927C41.405 16.1837 42.0941 15.7091 42.9004 15.4289C43.7066 15.1487 44.5938 15.0755 45.4496 15.2185C46.3054 15.3615 47.0915 15.7143 47.7085 16.2322C48.3254 16.7502 48.7454 17.4101 48.9155 18.1285C49.0855 18.8468 48.9979 19.5914 48.6637 20.2679C48.3295 20.9445 47.7638 21.5227 47.038 21.9293C46.3123 22.336 45.4592 22.5529 44.5865 22.5527H40.1765V18.8499Z" fill="#011A4A"/>
<path d="M37.9522 18.8499C37.9522 19.832 37.4874 20.7738 36.6601 21.4682C35.8327 22.1626 34.7105 22.5527 33.5405 22.5527C32.3704 22.5527 31.2483 22.1626 30.4209 21.4682C29.5935 20.7738 29.1287 19.832 29.1287 18.8499V9.57625C29.1287 8.59423 29.5935 7.65243 30.4209 6.95804C31.2483 6.26364 32.3704 5.87354 33.5405 5.87354C34.7105 5.87354 35.8327 6.26364 36.6601 6.95804C37.4874 7.65243 37.9522 8.59423 37.9522 9.57625V18.8499Z" fill="#011A4A"/>
<path d="M33.5405 33.7196C34.4131 33.7196 35.2661 33.9368 35.9917 34.3437C36.7172 34.7506 37.2827 35.329 37.6166 36.0056C37.9504 36.6823 38.0377 37.4269 37.8673 38.1452C37.697 38.8635 37.2766 39.5232 36.6594 40.041C36.0423 40.5588 35.256 40.9113 34.4001 41.054C33.5442 41.1967 32.6571 41.1232 31.851 40.8427C31.0448 40.5622 30.3559 40.0874 29.8714 39.4783C29.3868 38.8692 29.1284 38.1532 29.1287 37.4208V33.7196H33.5405Z" fill="#011A4A"/>
<path d="M33.5405 31.8528C32.3704 31.8528 31.2483 31.4627 30.4209 30.7683C29.5935 30.0739 29.1287 29.1321 29.1287 28.1501C29.1287 27.168 29.5935 26.2262 30.4209 25.5318C31.2483 24.8374 32.3704 24.4473 33.5405 24.4473H44.5882C45.7583 24.4473 46.8804 24.8374 47.7078 25.5318C48.5352 26.2262 49 27.168 49 28.1501C49 29.1321 48.5352 30.0739 47.7078 30.7683C46.8804 31.4627 45.7583 31.8528 44.5882 31.8528H33.5405Z" fill="#011A4A"/>
</svg>
